<svg width="35" height="35" viewBox="0 0 35 35" fill="none" xmlns="http://www.w3.org/2000/svg">
<path fill-rule="evenodd" clip-rule="evenodd" d="M28.278 14.4304C29.0752 14.1115 29.9795 14.5573 30.1036 15.4069C30.3575 17.1453 30.2565 18.9266 29.7961 20.6411C29.3961 22.1308 28.7351 23.5276 27.853 24.7717C27.3564 25.4721 26.3483 25.4586 25.7829 24.8125L21.0394 19.3919C20.3855 18.6447 20.6663 17.4754 21.5882 17.1066L28.278 14.4304ZM18.72 6.01182C18.72 5.15316 19.4698 4.47911 20.3048 4.67939C21.8779 5.0567 23.3753 5.72704 24.7151 6.66551C25.9408 7.52408 27.0004 8.58354 27.855 9.79109C28.3511 10.492 28.0037 11.4387 27.2064 11.7576L20.6947 14.362C19.7488 14.7403 18.72 14.0437 18.72 13.025V6.01182Z" fill="white"/>
<path fill-rule="evenodd" clip-rule="evenodd" d="M15.8405 17.1986C15.8406 17.5995 15.9867 17.9876 16.2507 18.2894L24.5823 27.812C25.1435 28.4534 25.0299 29.4452 24.2855 29.86C23.3923 30.3578 22.4453 30.7609 21.4597 31.0599C19.1937 31.7472 16.7928 31.8656 14.4704 31.4037C12.148 30.9417 9.97563 29.9136 8.1452 28.4115C6.31464 26.9092 4.88249 24.9782 3.97626 22.7904C3.0701 20.6026 2.71681 18.2251 2.94892 15.8685C3.18103 13.5118 3.99168 11.2486 5.30731 9.27963C6.62292 7.3108 8.40355 5.69666 10.4919 4.58041C11.6843 3.94306 12.956 3.47985 14.2685 3.19952C15.1019 3.02151 15.8405 3.69319 15.8405 4.5454V17.1986Z" fill="white"/>
</svg>
