<svg width="35" height="35" viewBox="0 0 35 35" fill="none" xmlns="http://www.w3.org/2000/svg">
<path d="M23.04 4.32001L23.04 8.64001M11.52 4.32001L11.52 8.64001" stroke="white" stroke-width="2.88" stroke-linecap="round"/>
<path d="M20.1599 8.63989C20.1601 10.2302 21.4494 11.5196 23.0398 11.5198C24.6303 11.5198 25.9195 10.2303 25.9197 8.63989V5.86938C27.324 6.00747 28.2689 6.32016 28.9744 7.02563C30.2396 8.2909 30.24 10.327 30.24 14.3997V21.5999C30.24 25.6728 30.2397 27.7096 28.9744 28.9749C27.7091 30.2398 25.6728 30.2405 21.6003 30.2405H12.9597C8.88727 30.2405 6.85097 30.2399 5.58569 28.9749C4.32039 27.7096 4.32007 25.6728 4.32007 21.5999V14.3997C4.32007 10.327 4.32043 8.2909 5.58569 7.02563C6.29102 6.3203 7.23563 6.00753 8.6394 5.86938V8.63989C8.63957 10.2302 9.92991 11.5196 11.5203 11.5198C13.1105 11.5195 14.4 10.2302 14.4001 8.63989V5.76001H20.1599V8.63989ZM11.5203 21.5999C10.725 21.5999 10.0798 22.245 10.0798 23.0403C10.08 23.8354 10.7251 24.4807 11.5203 24.4807H23.0398C23.8349 24.4806 24.4801 23.8354 24.4802 23.0403C24.4802 22.2451 23.835 21.6 23.0398 21.5999H11.5203ZM11.5203 15.8391C10.7251 15.8391 10.0801 16.4845 10.0798 17.2795C10.0798 18.0748 10.725 18.72 11.5203 18.72H23.0398C23.835 18.7199 24.4802 18.0748 24.4802 17.2795C24.48 16.4845 23.8348 15.8392 23.0398 15.8391H11.5203Z" fill="white"/>
</svg>
