<svg width="24" height="24" viewBox="0 0 24 24" fill="none" xmlns="http://www.w3.org/2000/svg">
<path d="M8.01615 16.5003C8.16727 14.1775 9.38683 12 12 12C14.6132 12 15.8327 14.1775 15.9839 16.5003C16.0018 16.7759 15.7761 17 15.5 17H8.5C8.22386 17 7.99822 16.7759 8.01615 16.5003Z" fill="white"/>
<path d="M14.019 15.5004C14.1586 13.6801 15.0753 12 17 12C18.9247 12 19.8414 13.6801 19.981 15.5004C20.0021 15.7757 19.7761 16 19.5 16H14.5C14.2239 16 13.9979 15.7757 14.019 15.5004Z" fill="white"/>
<path d="M4.01898 15.5004C4.15859 13.6801 5.07526 12 7 12C8.92474 12 9.84141 13.6801 9.98102 15.5004C10.0021 15.7757 9.77614 16 9.5 16H4.5C4.22386 16 3.99787 15.7757 4.01898 15.5004Z" fill="white"/>
<circle cx="12" cy="9" r="2" fill="white"/>
<circle cx="17" cy="9" r="2" fill="white"/>
<circle cx="7" cy="9" r="2" fill="white"/>
</svg>
