<svg width="35" height="35" viewBox="0 0 35 35" fill="none" xmlns="http://www.w3.org/2000/svg">
<path d="M12.9601 25.92H7.20007C5.60949 25.92 4.32007 24.6306 4.32007 23.04V8.64001C4.32007 7.04943 5.60949 5.76001 7.20007 5.76001H24.4801C26.0706 5.76001 27.3601 7.04943 27.3601 8.64001V11.52" stroke="white" stroke-width="2.88"/>
<path d="M5.76001 11.52H28.8" stroke="white" stroke-width="2.88"/>
<path d="M5.76001 18.72H12.96" stroke="white" stroke-width="2.88"/>
<path d="M16.6189 24.44C16.1346 23.5695 16.1346 22.5105 16.6189 21.64L17.5904 19.8936L18.617 18.1791C19.1288 17.3245 20.0459 16.795 21.042 16.7791L23.0401 16.7472L25.0382 16.7791C26.0343 16.795 26.9514 17.3245 27.4632 18.1791L28.4898 19.8936L29.4613 21.64C29.9455 22.5105 29.9455 23.5695 29.4613 24.44L28.4898 26.1864L27.4632 27.9009C26.9514 28.7556 26.0343 29.2851 25.0382 29.3009L23.0401 29.3328L21.042 29.3009C20.0459 29.2851 19.1288 28.7556 18.617 27.9009L17.5904 26.1864L16.6189 24.44Z" stroke="white" stroke-width="2.88"/>
<circle cx="23.0401" cy="23.04" r="1.44" fill="white"/>
</svg>
