<svg width="72" height="69" viewBox="0 0 72 69" fill="none" xmlns="http://www.w3.org/2000/svg">
<g filter="url(#filter0_d_1_27)">
<path d="M30.1818 55.1905H41.8182C41.8182 56.7313 41.2052 58.2089 40.1141 59.2984C39.023 60.3879 37.5431 61 36 61C34.4569 61 32.977 60.3879 31.8859 59.2984C30.7948 58.2089 30.1818 56.7313 30.1818 55.1905ZM62.1818 49.381V52.2857H9.81818V49.381L15.6364 43.5714V26.1429C15.6364 17.1381 21.5418 9.20809 30.1818 6.6519C30.1818 6.36143 30.1818 6.1 30.1818 5.80952C30.1818 4.26874 30.7948 2.79107 31.8859 1.70157C32.977 0.612073 34.4569 0 36 0C37.5431 0 39.023 0.612073 40.1141 1.70157C41.2052 2.79107 41.8182 4.26874 41.8182 5.80952C41.8182 6.1 41.8182 6.36143 41.8182 6.6519C50.4582 9.20809 56.3636 17.1381 56.3636 26.1429V43.5714L62.1818 49.381ZM50.5455 26.1429C50.5455 22.2909 49.013 18.5967 46.2852 15.873C43.5574 13.1492 39.8577 11.619 36 11.619C32.1423 11.619 28.4426 13.1492 25.7148 15.873C22.987 18.5967 21.4545 22.2909 21.4545 26.1429V46.4762H50.5455V26.1429ZM58.5455 3.45667L54.4145 7.58143C59.3891 12.4905 62.1818 19.1714 62.1818 26.1429H68C68 17.6319 64.6255 9.44048 58.5455 3.45667ZM4 26.1429H9.81818C9.81818 19.1714 12.6109 12.4905 17.5855 7.58143L13.4545 3.45667C7.37455 9.44048 4 17.6319 4 26.1429Z" fill="#5C3317"/>
</g>
<defs>
<filter id="filter0_d_1_27" x="0" y="0" width="72" height="69" filterUnits="userSpaceOnUse" color-interpolation-filters="sRGB">
<feFlood flood-opacity="0" result="BackgroundImageFix"/>
<feColorMatrix in="SourceAlpha" type="matrix" values="0 0 0 0 0 0 0 0 0 0 0 0 0 0 0 0 0 0 127 0" result="hardAlpha"/>
<feOffset dy="4"/>
<feGaussianBlur stdDeviation="2"/>
<feComposite in2="hardAlpha" operator="out"/>
<feColorMatrix type="matrix" values="0 0 0 0 0 0 0 0 0 0 0 0 0 0 0 0 0 0 0.25 0"/>
<feBlend mode="normal" in2="BackgroundImageFix" result="effect1_dropShadow_1_27"/>
<feBlend mode="normal" in="SourceGraphic" in2="effect1_dropShadow_1_27" result="shape"/>
</filter>
</defs>
</svg>
