<svg width="24" height="24" viewBox="0 0 24 24" fill="none" xmlns="http://www.w3.org/2000/svg">
<path d="M18 5C19.8856 5 20.8283 5.00015 21.4141 5.58594C21.9998 6.17172 22 7.11438 22 9V15C22 16.8856 21.9998 17.8283 21.4141 18.4141C20.8283 18.9998 19.8856 19 18 19H6C4.11438 19 3.17172 18.9998 2.58594 18.4141C2.00015 17.8283 2 16.8856 2 15V9C2 7.11438 2.00015 6.17172 2.58594 5.58594C3.17172 5.00015 4.11438 5 6 5H18ZM17 15C16.4477 15 16 15.4477 16 16C16 16.5523 16.4477 17 17 17H19C19.5523 17 20 16.5523 20 16C20 15.4477 19.5523 15 19 15H17ZM12 9C10.3431 9 9 10.3431 9 12C9 13.6569 10.3431 15 12 15C13.6569 15 15 13.6569 15 12C15 10.3431 13.6569 9 12 9ZM12 11C12.5523 11 13 11.4477 13 12C13 12.5523 12.5523 13 12 13C11.4477 13 11 12.5523 11 12C11 11.4477 11.4477 11 12 11ZM5 7C4.44772 7 4 7.44772 4 8C4 8.55228 4.44772 9 5 9H7C7.55228 9 8 8.55228 8 8C8 7.44772 7.55228 7 7 7H5Z" fill="#5C3317"/>
</svg>
