<svg width="11" height="12" viewBox="0 0 11 12" fill="none" xmlns="http://www.w3.org/2000/svg">
<path d="M3.18749 2.99999C3.34274 2.99999 3.48336 2.93699 3.58536 2.835L4.49998 1.92037V8.0625C4.49998 8.373 4.7516 8.625 5.06248 8.625C5.37336 8.625 5.62498 8.373 5.62498 8.0625V1.92037L6.53998 2.835C6.64161 2.93701 6.78224 2.99999 6.93747 2.99999C7.24835 2.99999 7.49997 2.74799 7.49997 2.43749C7.49997 2.28224 7.43697 2.14162 7.33536 2.03962L5.46038 0.16463C5.35837 0.0629999 5.21774 0 5.0625 0C4.90725 0 4.76662 0.0629999 4.66499 0.164994L2.79 2.04C2.68799 2.14163 2.62499 2.28226 2.62499 2.43749C2.62499 2.74799 2.87662 2.99999 3.18749 2.99999ZM9.375 3.75H7.31249C7.00161 3.75 6.74999 4.002 6.74999 4.3125C6.74999 4.623 7.00161 4.875 7.31249 4.875H8.99999V10.875H1.125V4.875H2.8125C3.12338 4.875 3.375 4.623 3.375 4.3125C3.375 4.002 3.12338 3.75 2.8125 3.75H0.749994C0.336375 3.75 0 4.08674 0 4.5V11.25C0 11.6632 0.336375 12 0.749994 12H9.37498C9.7886 12 10.125 11.6632 10.125 11.25V4.5C10.125 4.08674 9.78862 3.75 9.375 3.75Z" fill="black"/>
</svg>
