<svg width="35" height="35" viewBox="0 0 35 35" fill="none" xmlns="http://www.w3.org/2000/svg">
<path d="M28.8 7.20001C29.5953 7.20001 30.24 6.5553 30.24 5.76001C30.24 4.96472 29.5953 4.32001 28.8 4.32001V5.76001V7.20001ZM7.92006 5.76001V7.20001L28.8 7.20001V5.76001V4.32001L7.92006 4.32001V5.76001ZM7.92006 12.96V14.4L19.44 14.4V12.96V11.52L7.92006 11.52V12.96ZM4.32006 9.36001H5.76006C5.76006 8.16708 6.72713 7.20001 7.92006 7.20001V5.76001V4.32001C5.13655 4.32001 2.88006 6.5765 2.88006 9.36001H4.32006ZM4.32006 9.36001H2.88006C2.88006 12.1435 5.13655 14.4 7.92006 14.4V12.96V11.52C6.72713 11.52 5.76006 10.5529 5.76006 9.36001H4.32006Z" fill="white"/>
<path d="M4.32007 17.28L4.32007 9.36001" stroke="white" stroke-width="2.88"/>
<path d="M7.19995 30.9597C6.54161 30.9597 5.97538 30.9618 5.52417 30.9011C5.0522 30.8377 4.59913 30.6939 4.23218 30.3269C3.86555 29.9601 3.72236 29.5077 3.65894 29.0359C3.59829 28.5847 3.60034 28.0185 3.60034 27.3601L3.60034 12.24L27.3601 12.24C28.0185 12.24 28.5847 12.2389 29.0359 12.2996C29.5078 12.363 29.96 12.506 30.3269 12.8728C30.6938 13.2398 30.8377 13.6919 30.9011 14.1638C30.9618 14.615 30.9597 15.1813 30.9597 15.8396V17.9998H25.9197C23.9316 17.9999 22.3201 19.6122 22.3201 21.6004C22.3203 23.5883 23.9317 25.1998 25.9197 25.2H30.9597V27.3601C30.9597 28.0185 30.9618 28.5847 30.9011 29.0359C30.8377 29.5079 30.6939 29.96 30.3269 30.3269C29.9599 30.6939 29.5079 30.8377 29.0359 30.9011C28.5847 30.9618 28.0185 30.9597 27.3601 30.9597L7.19995 30.9597Z" fill="white" stroke="white" stroke-width="1.44"/>
</svg>
