<svg width="16" height="21" viewBox="0 0 16 21" fill="none" xmlns="http://www.w3.org/2000/svg">
<path d="M12.1448 19.75H3.31829C2.83757 19.75 2.43893 19.3177 2.40602 18.7608L1.55005 4.27637H13.9131L13.0571 18.7608C13.0242 19.3177 12.6255 19.75 12.1448 19.75Z" stroke="#BFBFBF" stroke-width="1.5" stroke-miterlimit="10" stroke-linecap="round" stroke-linejoin="round"/>
<path d="M5.0861 17.0953L4.42261 6.93115" stroke="#BFBFBF" stroke-width="1.5" stroke-miterlimit="10" stroke-linecap="round" stroke-linejoin="round"/>
<path d="M11.0409 6.93115L10.3774 17.0953" stroke="#BFBFBF" stroke-width="1.5" stroke-miterlimit="10" stroke-linecap="round" stroke-linejoin="round"/>
<path d="M7.73071 7.00537V17.0952" stroke="#BFBFBF" stroke-width="1.5" stroke-miterlimit="10" stroke-linecap="round" stroke-linejoin="round"/>
<path d="M14.3614 4.27617H1.10186C0.907533 4.27617 0.75 4.09323 0.75 3.86757V3.02823C0.75 2.80257 0.907533 2.61963 1.10186 2.61963H14.3614C14.5557 2.61963 14.7132 2.80257 14.7132 3.02823V3.86757C14.7132 4.09323 14.5557 4.27617 14.3614 4.27617Z" stroke="#BFBFBF" stroke-width="1.5" stroke-miterlimit="10" stroke-linecap="round" stroke-linejoin="round"/>
<path d="M6.12061 2.61983C6.12061 1.58715 6.8415 0.75 7.73078 0.75C8.62005 0.75 9.34095 1.58715 9.34095 2.61983" stroke="#BFBFBF" stroke-width="1.5" stroke-miterlimit="10" stroke-linecap="round" stroke-linejoin="round"/>
</svg>
