<svg width="51" height="50" viewBox="0 0 51 50" fill="none" xmlns="http://www.w3.org/2000/svg">
<g filter="url(#filter0_d_1_722)">
<path fill-rule="evenodd" clip-rule="evenodd" d="M27.014 39.6146C27.014 39.6146 24.5785 29.8369 17.7592 25.8256C10.9399 21.8143 8.50449 12.0366 8.50449 12.0366C3.26826 15.7973 3.14649 25.0735 8.26094 32.5947C13.3754 40.116 21.7777 43.3752 27.014 39.6146Z" stroke="white" stroke-linecap="round" stroke-linejoin="round"/>
<path d="M20.4382 38.3608C21.4124 38.6115 22.5084 38.6115 23.4826 38.6115" stroke="white" stroke-linecap="round" stroke-linejoin="round"/>
<path d="M10.0875 31.4668C12.0359 33.9739 14.3496 35.8542 16.785 37.1077" stroke="white" stroke-linecap="round" stroke-linejoin="round"/>
<path fill-rule="evenodd" clip-rule="evenodd" d="M28.8405 38.3611C28.8405 38.3611 26.4051 28.5834 19.5858 24.5721C12.7665 20.5607 10.3311 10.9084 10.3311 10.9084C15.5673 7.14782 24.0914 10.2817 29.2058 17.8029C34.3203 25.3242 34.0768 34.6004 28.8405 38.3611Z" stroke="white" stroke-linecap="round" stroke-linejoin="round"/>
<path d="M31.7631 17.1761C28.4752 9.90551 32.2502 0.503931 32.2502 0.503931C28.2317 0.378577 24.5785 3.26173 22.3866 7.64913" stroke="white" stroke-linecap="round" stroke-linejoin="round"/>
<path fill-rule="evenodd" clip-rule="evenodd" d="M33.5897 33.9737C33.5897 33.9737 37.2429 24.5721 33.955 17.3015C30.6672 10.031 34.3204 0.629395 34.3204 0.629395C40.7743 0.754749 45.767 8.40136 45.5235 17.6776C45.2799 26.9538 39.9219 34.2244 33.5897 33.9737Z" stroke="white" stroke-linecap="round" stroke-linejoin="round"/>
<path d="M42.9662 11.2842C43.5751 12.9138 44.0622 15.1702 43.8187 17.0505" stroke="white" stroke-linecap="round" stroke-linejoin="round"/>
<path d="M36.634 3.51221C38.3389 4.38969 39.9219 5.76859 41.1396 7.6489" stroke="white" stroke-linecap="round" stroke-linejoin="round"/>
</g>
<defs>
<filter id="filter0_d_1_722" x="0" y="0" width="50.032" height="49.6831" filterUnits="userSpaceOnUse" color-interpolation-filters="sRGB">
<feFlood flood-opacity="0" result="BackgroundImageFix"/>
<feColorMatrix in="SourceAlpha" type="matrix" values="0 0 0 0 0 0 0 0 0 0 0 0 0 0 0 0 0 0 127 0" result="hardAlpha"/>
<feOffset dy="4"/>
<feGaussianBlur stdDeviation="2"/>
<feComposite in2="hardAlpha" operator="out"/>
<feColorMatrix type="matrix" values="0 0 0 0 0 0 0 0 0 0 0 0 0 0 0 0 0 0 0.25 0"/>
<feBlend mode="normal" in2="BackgroundImageFix" result="effect1_dropShadow_1_722"/>
<feBlend mode="normal" in="SourceGraphic" in2="effect1_dropShadow_1_722" result="shape"/>
</filter>
</defs>
</svg>
